# xmcd CD database file
#
# Track frame offsets:
#	182
#	10507
#	20252
#	30010
#	40605
#	52000
#	60747
#	72187
#	82462
#	93872
#	104600
#	115132
#	126405
#	138020
#	149172
#	159685
#	171380
#	182490
#	197507
#	206127
#	216695
#	226097
#	236362
#	247397
#	258770
#	269095
#	279487
#
# Disc length: 3845 seconds
#
# Revision: 1
# Processed by: cddbd v1.5.2PL0 Copyright (c) Steve Scherf et al.
# Submitted via: CDex 1.70beta2
#
DISCID=8f0f031b
DTITLE=Anthony , Richard - Itsy Bitsy, Petit Bikini (1958-1961) -  Itsy Bitsy, Petit Bikini (1958-1961)
DYEAR=1993
DGENRE=Chanson
TTITLE0=Viens (When) (11-1958)
TTITLE1=Betty Baby (Stupid Cupid) (11-1958)
TTITLE2=Tu M'étais Destinée (You Are My Destiny) (11-1958)
TTITLE3=Peggy Sue (Peggy Sue) (11-1958)
TTITLE4=Suzy Darling (Suzie Darlin') (11-1958)
TTITLE5=Tout L'amour (Passion Flower) (3-1959)
TTITLE6=C'est Le Jeu (It's All In The Game) (5-1959)
TTITLE7=Chanson Magique (Move It) (5-1959)
TTITLE8=La Rue Des Coeurs Perdus (Lonesome Town) (4-1959)
TTITLE9=La Do Da Da (Lo Do Da) (5-1959)
TTITLE10=J'ai Rêvé (Dream Lover) (11-1959)
TTITLE11=Pauv' Jenny (Poor Jenny) (9-1959)
TTITLE12=Nouvelle Vague (Three Cool Cats) (9-1959)
TTITLE13=Au Fond De Mon Coeur (12-1959)
TTITLE14=Jericho (Joshua Fit The Battle) (12-1959)
TTITLE15=Mélodie Pour Un Amour (Broken Hearted Melody) (12-1959)
TTITLE16=Je Suis Amoureux (12-1959)
TTITLE17=Clémentine (4-1960)
TTITLE18=Je Suis Content... Je Chante (Be Mine) (4-1960)
TTITLE19=Mon Amour Et Toi (4-1960)
TTITLE20=Roly Poly (Roly Poly) (9-1960)
TTITLE21=Je Suis Fou De L'école (Swinging School) (9-1960)
TTITLE22=Itsy Bitsy, Petit Bikini (Itsy Bitsy Teenie Weenie) (9-1960)
TTITLE23=Le Petit Clown De Ton Coeur (Cathy's Clown) (10-1960)
TTITLE24=Bisque, Bisque, Rage (11-1960)
TTITLE25=Karting Rock (11-1960)
TTITLE26=Clin D'oeil (Goggle Eye'd) (1-1961)
EXTD=YEAR: 1993
EXTT0=
EXTT1=
EXTT2=
EXTT3=
EXTT4=
EXTT5=
EXTT6=
EXTT7=
EXTT8=
EXTT9=
EXTT10=
EXTT11=
EXTT12=
EXTT13=
EXTT14=
EXTT15=
EXTT16=
EXTT17=
EXTT18=
EXTT19=
EXTT20=
EXTT21=
EXTT22=
EXTT23=
EXTT24=
EXTT25=
EXTT26=
PLAYORDER=
